# xmcd CD database file
#
# Track frame offsets:
#	150
#	15531
#	29505
#	45419
#	60585
#	75079
#	89204
#	102837
#	117699
#	133168
#	150228
#	165243
#	180994
#	195450
#	209125
#	226040
#	241711
#	260362
#	273214
#	287711
#	300622
#	311174
#	324324
#	339206
#
# Disc length: 4722 seconds
#
# Revision: 2
# Processed by: cddbd v1.5.2PL0 Copyright (c) Steve Scherf et al.
# Submitted via: CDex 1.78
#
DISCID=35127018
DTITLE=Various Artist - The Ballad of Slim and Lefty
DYEAR=2016
DGENRE=Country
TTITLE0=Dave Parks - The Train Of Life
TTITLE1=Allen Karl - Deal The Cards
TTITLE2=Glenn Erickson - Like I Love You
TTITLE3=Phillip Clarkson - My Own Back Yard
TTITLE4=Dave Parks - Margarita
TTITLE5=Glenn Erickson - Alone In A Crowd
TTITLE6=Phillip Clarkson - Coolest Cat In Town
TTITLE7=Gail Russell and Trevor Stevens - Did I Fall In Love
TTITLE8=Glenn Erickson - Much Too Beautiful
TTITLE9=Chris Anderson - A Smile On His Face
TTITLE10=Phillip Clarkson - That Ain't Me
TTITLE11=Glenn Erickson - Vegas Casino Blues
TTITLE12=Trevor Stevens - Load On My mind
TTITLE13=Chris Anderson - Your Mem'ry
TTITLE14=Glenn Erickson - Heaven Help Us Elvis
TTITLE15=Phillip Clarkson - Silvery Gray Barn
TTITLE16=Trevor Stevens - Rosie's Bar
TTITLE17=Glenn Erickson - Long Gone John
TTITLE18=Gail Russell - A Bright Light
TTITLE19=Dave Parks - Old Time Country Music
TTITLE20=Glenn Erickson - I Dreamed
TTITLE21=Chris Anderson - The Story Of The Rest Of My Life
TTITLE22=Trevor Stevens - I Can't Believe My Lies 
TTITLE23=Jackie Cook - Ballad Of Slim and Lefty
EXTD=YEAR: 2016
EXTT0=
EXTT1=
EXTT2=
EXTT3=
EXTT4=
EXTT5=
EXTT6=
EXTT7=
EXTT8=
EXTT9=
EXTT10=
EXTT11=
EXTT12=
EXTT13=
EXTT14=
EXTT15=
EXTT16=
EXTT17=
EXTT18=
EXTT19=
EXTT20=
EXTT21=
EXTT22=
EXTT23=
PLAYORDER=
